<svg width="126" height="48" viewBox="0 0 126 48" fill="none" xmlns="http://www.w3.org/2000/svg">
<path d="M11.95 27.2C11.3167 26.8 10.6 26.4833 9.8 26.25C9.03333 26.0167 8.23333 25.8 7.4 25.6C6.6 25.4 5.81667 25.1833 5.05 24.95C4.28333 24.6833 3.58333 24.3167 2.95 23.85C1.58333 22.8167 0.783333 21.55 0.55 20.05C0.35 18.5167 0.683333 16.9833 1.55 15.45C2.01667 14.65 2.63333 14 3.4 13.5C4.16667 12.9667 5 12.5667 5.9 12.3C6.83333 12 7.78333 11.8333 8.75 11.8C9.71667 11.7667 10.6333 11.8167 11.5 11.95C12.0667 12.05 12.6667 12.2 13.3 12.4C13.9333 12.5667 14.5167 12.8 15.05 13.1C15.6167 13.4 16.1167 13.7833 16.55 14.25C17.0167 14.6833 17.35 15.2333 17.55 15.9C17.6833 16.3333 17.7 16.75 17.6 17.15C17.5333 17.55 17.3667 17.8833 17.1 18.15C16.8667 18.4167 16.55 18.6167 16.15 18.75C15.7833 18.8833 15.3833 18.9167 14.95 18.85C14.45 18.75 13.9833 18.6 13.55 18.4C13.1167 18.2 12.6833 17.9833 12.25 17.75C11.8167 17.5167 11.3667 17.3167 10.9 17.15C10.4667 16.9833 10 16.9 9.5 16.9C8.73333 16.8667 8.1 17 7.6 17.3C7.1 17.6 6.75 17.9667 6.55 18.4C6.38333 18.8333 6.4 19.3 6.6 19.8C6.83333 20.3 7.3 20.7333 8 21.1C8.63333 21.4333 9.33333 21.7 10.1 21.9C10.8667 22.1 11.6167 22.3 12.35 22.5C13.1167 22.7 13.85 22.9333 14.55 23.2C15.2833 23.4667 15.9333 23.8333 16.5 24.3C17.6 25.2 18.2667 26.25 18.5 27.45C18.7667 28.65 18.7 29.8333 18.3 31C17.9 32.1667 17.2 33.2 16.2 34.1C15.2333 35 14.0833 35.6 12.75 35.9C11.7833 36.1 10.7333 36.2 9.6 36.2C8.5 36.2 7.4 36.0833 6.3 35.85C5.23333 35.6167 4.2 35.25 3.2 34.75C2.23333 34.25 1.41667 33.6167 0.75 32.85C0.283333 32.3167 0.0333334 31.7167 1.41561e-07 31.05C1.41561e-07 30.35 0.133333 29.75 0.4 29.25C0.7 28.7167 1.11667 28.35 1.65 28.15C2.18333 27.95 2.78333 28.0667 3.45 28.5C3.98333 28.8667 4.61667 29.2333 5.35 29.6C6.08333 29.9333 6.81667 30.2 7.55 30.4C8.28333 30.6 8.98333 30.7 9.65 30.7C10.35 30.7 10.95 30.55 11.45 30.25C12.1833 29.7833 12.5667 29.25 12.6 28.65C12.6333 28.0167 12.4167 27.5333 11.95 27.2ZM36.7051 13.5C37.6717 13.9 38.5551 14.4833 39.3551 15.25C40.1551 15.9833 40.8384 16.8333 41.4051 17.8C42.0051 18.7667 42.4551 19.8167 42.7551 20.95C43.0884 22.05 43.2551 23.1667 43.2551 24.3C43.2884 26 42.8884 27.6 42.0551 29.1C41.2551 30.6 39.9384 31.75 38.1051 32.55C36.7051 33.1167 35.2551 33.55 33.7551 33.85C32.2884 34.1167 30.7551 34.3 29.1551 34.4V43.55C29.1551 43.75 29.1217 43.9333 29.0551 44.1C29.0217 44.2667 29.0051 44.4333 29.0051 44.6C28.9384 44.9333 28.8551 45.2333 28.7551 45.5C28.6884 45.7667 28.5884 46.05 28.4551 46.35C28.3217 46.55 28.1884 46.7333 28.0551 46.9C27.9217 47.0667 27.7717 47.2333 27.6051 47.4C26.8051 47.8 25.9717 47.8833 25.1051 47.65C24.5717 47.6167 24.1384 47.45 23.8051 47.15C23.5051 46.85 23.2884 46.5333 23.1551 46.2C23.0217 45.8667 22.9051 45.4833 22.8051 45.05C22.7717 44.8833 22.7384 44.7167 22.7051 44.55C22.7051 44.4167 22.7051 44.2667 22.7051 44.1V16.25C22.7051 16.05 22.7051 15.85 22.7051 15.65C22.7384 15.4167 22.7717 15.1833 22.8051 14.95C22.8384 14.55 22.9384 14.15 23.1051 13.75C23.4051 12.9167 24.0217 12.35 24.9551 12.05C25.8884 11.75 26.9384 11.6167 28.1051 11.65C28.9051 11.6833 29.7217 11.7667 30.5551 11.9C31.4217 12.0333 32.2384 12.2 33.0051 12.4C33.8051 12.5667 34.5217 12.75 35.1551 12.95C35.7884 13.15 36.3051 13.3333 36.7051 13.5ZM36.8051 24.3C36.9384 23.3667 36.8217 22.5833 36.4551 21.95C36.1217 21.2833 35.6384 20.75 35.0051 20.35C34.3717 19.9167 33.6384 19.5833 32.8051 19.35C32.0051 19.1167 31.2051 18.95 30.4051 18.85C30.3051 18.8167 30.1384 18.8 29.9051 18.8C29.7051 18.8 29.4717 18.8 29.2051 18.8C29.2051 19.8667 29.2051 20.9 29.2051 21.9C29.2384 22.8667 29.2384 23.9167 29.2051 25.05V28.4C29.9717 28.3667 30.7717 28.2833 31.6051 28.15C32.4717 28.0167 33.2717 27.8 34.0051 27.5C34.7384 27.2 35.3551 26.8 35.8551 26.3C36.3884 25.8 36.7051 25.1333 36.8051 24.3ZM53.6145 17.05C53.6145 17.9833 53.6145 19.0333 53.6145 20.2C53.6478 21.3667 53.6645 22.5833 53.6645 23.85C53.6645 25.0833 53.6645 26.3167 53.6645 27.55C53.6645 28.75 53.6478 29.8667 53.6145 30.9C53.5811 31.4 53.5311 31.95 53.4645 32.55C53.3978 33.1167 53.2645 33.65 53.0645 34.15C52.8645 34.65 52.5478 35.0667 52.1145 35.4C51.7145 35.7 51.1645 35.8333 50.4645 35.8C49.4311 35.7333 48.6811 35.2833 48.2145 34.45C47.7811 33.6167 47.5311 32.45 47.4645 30.95C47.4645 30.1833 47.4478 29.3 47.4145 28.3C47.4145 27.3 47.3978 26.2833 47.3645 25.25C47.3645 24.2167 47.3645 23.2167 47.3645 22.25C47.3645 21.25 47.3645 20.35 47.3645 19.55C47.3645 19.0833 47.3478 18.5167 47.3145 17.85C47.3145 17.1833 47.3311 16.5 47.3645 15.8C47.3978 15.1 47.4811 14.4333 47.6145 13.8C47.7478 13.1333 47.9645 12.5833 48.2645 12.15C48.4978 11.8833 48.8311 11.6833 49.2645 11.55C49.6978 11.3833 50.1478 11.3 50.6145 11.3C51.1145 11.3 51.5811 11.3833 52.0145 11.55C52.4811 11.7167 52.8145 11.95 53.0145 12.25C53.1478 12.45 53.2478 12.7333 53.3145 13.1C53.3811 13.4667 53.4311 13.8833 53.4645 14.35C53.5311 14.7833 53.5645 15.25 53.5645 15.75C53.5978 16.2167 53.6145 16.65 53.6145 17.05ZM51.7145 6.95C50.6811 7.21667 49.8145 7.11667 49.1145 6.65C48.4478 6.15 48.0311 5.41666 47.8645 4.45C47.7311 3.75 47.7811 3.13333 48.0145 2.6C48.2478 2.06667 48.5978 1.66667 49.0645 1.4C49.5311 1.1 50.0645 0.966665 50.6645 0.999998C51.2645 1.03333 51.8645 1.26666 52.4645 1.7C53.0311 2.1 53.4311 2.56666 53.6645 3.1C53.9311 3.63333 54.0145 4.15 53.9145 4.65C53.8478 5.15 53.6311 5.61666 53.2645 6.05C52.8978 6.45 52.3811 6.75 51.7145 6.95Z" fill="white"/>
<path d="M76.6078 16.75C76.8745 17.2167 77.0078 17.7167 77.0078 18.25C77.0411 18.7833 76.9245 19.2833 76.6578 19.75C76.3578 20.35 75.9245 20.7667 75.3578 21C74.8245 21.2 74.2245 21.2167 73.5578 21.05C73.2578 20.9833 72.9911 20.8667 72.7578 20.7C72.5245 20.5333 72.2745 20.3667 72.0078 20.2C71.7745 20 71.4911 19.8167 71.1578 19.65C70.8578 19.4833 70.4578 19.3667 69.9578 19.3C69.4578 19.2333 68.9078 19.2333 68.3078 19.3C67.7411 19.3667 67.2245 19.5 66.7578 19.7C66.0245 20.0667 65.4411 20.6333 65.0078 21.4C64.5745 22.1333 64.2911 22.9333 64.1578 23.8C64.0245 24.6333 64.0411 25.4833 64.2078 26.35C64.4078 27.2167 64.7745 27.95 65.3078 28.55C65.7078 29.0167 66.2245 29.4 66.8578 29.7C67.5245 30 68.1578 30.1833 68.7578 30.25C69.3245 30.3167 69.8911 30.3167 70.4578 30.25C71.0245 30.15 71.5745 30.0167 72.1078 29.85C72.5078 29.6833 72.9578 29.4667 73.4578 29.2C73.9578 28.9 74.4411 28.7167 74.9078 28.65C75.5078 28.65 75.9745 28.8167 76.3078 29.15C76.6411 29.45 76.8745 29.8333 77.0078 30.3C77.1411 30.7333 77.1578 31.2 77.0578 31.7C76.9911 32.2 76.8078 32.6333 76.5078 33C76.1078 33.5 75.5411 33.9833 74.8078 34.45C74.0745 34.8833 73.3745 35.2 72.7078 35.4C71.9078 35.6667 71.0078 35.8167 70.0078 35.85C69.0411 35.8833 68.1245 35.85 67.2578 35.75C66.8578 35.6833 66.4411 35.6 66.0078 35.5C65.5745 35.4 65.1578 35.2833 64.7578 35.15C63.2911 34.6167 62.0578 33.8667 61.0578 32.9C60.0911 31.9 59.3411 30.7833 58.8078 29.55C58.3078 28.3167 58.0245 27 57.9578 25.6C57.8911 24.2 58.0578 22.8167 58.4578 21.45C58.8245 20.15 59.2745 19.05 59.8078 18.15C60.3745 17.25 61.0245 16.5167 61.7578 15.95C62.5245 15.35 63.3745 14.8833 64.3078 14.55C65.2411 14.1833 66.2745 13.8667 67.4078 13.6C68.5745 13.3667 69.8078 13.3667 71.1078 13.6C72.4078 13.8333 73.5745 14.2667 74.6078 14.9C75.4078 15.3333 76.0745 15.95 76.6078 16.75ZM98.4035 29.15C98.8035 29.05 99.2035 28.9833 99.6035 28.95C100.037 28.9167 100.42 28.9667 100.754 29.1C101.12 29.2333 101.42 29.4667 101.654 29.8C101.887 30.1 102.004 30.5333 102.004 31.1C102.004 31.5 101.904 31.8833 101.704 32.25C101.504 32.6167 101.254 32.95 100.954 33.25C100.654 33.55 100.32 33.8167 99.9535 34.05C99.5868 34.25 99.2369 34.4167 98.9035 34.55C97.9368 34.9833 96.8202 35.3167 95.5535 35.55C94.3202 35.7833 93.0368 35.8667 91.7035 35.8C89.9035 35.7333 88.1702 35.3833 86.5035 34.75C84.8702 34.0833 83.5868 33 82.6535 31.5C81.7868 30.0333 81.2702 28.4 81.1035 26.6C80.9368 24.8 81.0202 23.1 81.3535 21.5C81.7202 19.5667 82.3368 18 83.2035 16.8C84.1035 15.5667 85.1702 14.5833 86.4035 13.85C87.9035 12.9833 89.5868 12.5333 91.4535 12.5C93.3202 12.4667 95.1035 12.8333 96.8035 13.6C97.9368 14.1 98.9535 14.7833 99.8535 15.65C100.754 16.4833 101.437 17.5 101.904 18.7C102.037 19 102.137 19.3667 102.204 19.8C102.304 20.2333 102.37 20.7 102.404 21.2C102.437 21.6667 102.437 22.1333 102.404 22.6C102.37 23.0667 102.287 23.4833 102.154 23.85C101.954 24.45 101.704 24.9167 101.404 25.25C101.104 25.5833 100.72 25.8333 100.254 26C99.7868 26.1667 99.2202 26.2833 98.5535 26.35C97.9202 26.3833 97.1535 26.4167 96.2535 26.45C95.4535 26.4833 94.7035 26.5 94.0035 26.5C93.3035 26.5 92.5868 26.5 91.8535 26.5C91.1202 26.4667 90.3535 26.45 89.5535 26.45C88.7868 26.4167 87.9202 26.3833 86.9535 26.35C86.8535 27.0167 86.9368 27.6 87.2035 28.1C87.5035 28.5667 87.9035 28.9667 88.4035 29.3C88.9035 29.6 89.4702 29.8333 90.1035 30C90.7368 30.1667 91.3535 30.2667 91.9535 30.3C93.0868 30.3667 94.1702 30.2833 95.2035 30.05C96.2368 29.7833 97.3035 29.4833 98.4035 29.15ZM96.2535 19.45C95.6202 18.7167 94.9535 18.1833 94.2535 17.85C93.7202 17.6167 93.1535 17.5167 92.5535 17.55C91.9868 17.55 91.4368 17.6333 90.9035 17.8C89.9368 18.0333 89.1202 18.5333 88.4535 19.3C88.3868 19.3667 88.2702 19.5333 88.1035 19.8C87.9368 20.0333 87.7702 20.2833 87.6035 20.55C87.4702 20.8167 87.3702 21.0667 87.3035 21.3C87.2368 21.5333 87.2702 21.65 87.4035 21.65H97.2035C97.1702 21.1833 97.0869 20.8 96.9535 20.5C96.8202 20.1667 96.5868 19.8167 96.2535 19.45ZM118.395 27.2C117.762 26.8 117.045 26.4833 116.245 26.25C115.479 26.0167 114.679 25.8 113.845 25.6C113.045 25.4 112.262 25.1833 111.495 24.95C110.729 24.6833 110.029 24.3167 109.395 23.85C108.029 22.8167 107.229 21.55 106.995 20.05C106.795 18.5167 107.129 16.9833 107.995 15.45C108.462 14.65 109.079 14 109.845 13.5C110.612 12.9667 111.445 12.5667 112.345 12.3C113.279 12 114.229 11.8333 115.195 11.8C116.162 11.7667 117.079 11.8167 117.945 11.95C118.512 12.05 119.112 12.2 119.745 12.4C120.379 12.5667 120.962 12.8 121.495 13.1C122.062 13.4 122.562 13.7833 122.995 14.25C123.462 14.6833 123.795 15.2333 123.995 15.9C124.129 16.3333 124.145 16.75 124.045 17.15C123.979 17.55 123.812 17.8833 123.545 18.15C123.312 18.4167 122.995 18.6167 122.595 18.75C122.229 18.8833 121.829 18.9167 121.395 18.85C120.895 18.75 120.429 18.6 119.995 18.4C119.562 18.2 119.129 17.9833 118.695 17.75C118.262 17.5167 117.812 17.3167 117.345 17.15C116.912 16.9833 116.445 16.9 115.945 16.9C115.179 16.8667 114.545 17 114.045 17.3C113.545 17.6 113.195 17.9667 112.995 18.4C112.829 18.8333 112.845 19.3 113.045 19.8C113.279 20.3 113.745 20.7333 114.445 21.1C115.079 21.4333 115.779 21.7 116.545 21.9C117.312 22.1 118.062 22.3 118.795 22.5C119.562 22.7 120.295 22.9333 120.995 23.2C121.729 23.4667 122.379 23.8333 122.945 24.3C124.045 25.2 124.712 26.25 124.945 27.45C125.212 28.65 125.145 29.8333 124.745 31C124.345 32.1667 123.645 33.2 122.645 34.1C121.679 35 120.529 35.6 119.195 35.9C118.229 36.1 117.179 36.2 116.045 36.2C114.945 36.2 113.845 36.0833 112.745 35.85C111.679 35.6167 110.645 35.25 109.645 34.75C108.679 34.25 107.862 33.6167 107.195 32.85C106.729 32.3167 106.479 31.7167 106.445 31.05C106.445 30.35 106.579 29.75 106.845 29.25C107.145 28.7167 107.562 28.35 108.095 28.15C108.629 27.95 109.229 28.0667 109.895 28.5C110.429 28.8667 111.062 29.2333 111.795 29.6C112.529 29.9333 113.262 30.2 113.995 30.4C114.729 30.6 115.429 30.7 116.095 30.7C116.795 30.7 117.395 30.55 117.895 30.25C118.629 29.7833 119.012 29.25 119.045 28.65C119.079 28.0167 118.862 27.5333 118.395 27.2Z" fill="black"/>
</svg>
