<svg width="17" height="22" viewBox="0 0 17 22" fill="none" xmlns="http://www.w3.org/2000/svg">
<path d="M10.718 13.608C10.186 13.272 9.584 13.006 8.912 12.81C8.268 12.614 7.596 12.432 6.896 12.264C6.224 12.096 5.566 11.914 4.922 11.718C4.278 11.494 3.69 11.186 3.158 10.794C2.01 9.926 1.338 8.862 1.142 7.602C0.974 6.314 1.254 5.026 1.982 3.738C2.374 3.066 2.892 2.52 3.536 2.1C4.18 1.652 4.88 1.316 5.636 1.092C6.42 0.839999 7.218 0.699999 8.03 0.671999C8.842 0.643999 9.612 0.685999 10.34 0.797998C10.816 0.881999 11.32 1.008 11.852 1.176C12.384 1.316 12.874 1.512 13.322 1.764C13.798 2.016 14.218 2.338 14.582 2.73C14.974 3.094 15.254 3.556 15.422 4.116C15.534 4.48 15.548 4.83 15.464 5.166C15.408 5.502 15.268 5.782 15.044 6.006C14.848 6.23 14.582 6.398 14.246 6.51C13.938 6.622 13.602 6.65 13.238 6.594C12.818 6.51 12.426 6.384 12.062 6.216C11.698 6.048 11.334 5.866 10.97 5.67C10.606 5.474 10.228 5.306 9.836 5.166C9.472 5.026 9.08 4.956 8.66 4.956C8.016 4.928 7.484 5.04 7.064 5.292C6.644 5.544 6.35 5.852 6.182 6.216C6.042 6.58 6.056 6.972 6.224 7.392C6.42 7.812 6.812 8.176 7.4 8.484C7.932 8.764 8.52 8.988 9.164 9.156C9.808 9.324 10.438 9.492 11.054 9.66C11.698 9.828 12.314 10.024 12.902 10.248C13.518 10.472 14.064 10.78 14.54 11.172C15.464 11.928 16.024 12.81 16.22 13.818C16.444 14.826 16.388 15.82 16.052 16.8C15.716 17.78 15.128 18.648 14.288 19.404C13.476 20.16 12.51 20.664 11.39 20.916C10.578 21.084 9.696 21.168 8.744 21.168C7.82 21.168 6.896 21.07 5.972 20.874C5.076 20.678 4.208 20.37 3.368 19.95C2.556 19.53 1.87 18.998 1.31 18.354C0.918 17.906 0.708 17.402 0.68 16.842C0.68 16.254 0.792 15.75 1.016 15.33C1.268 14.882 1.618 14.574 2.066 14.406C2.514 14.238 3.018 14.336 3.578 14.7C4.026 15.008 4.558 15.316 5.174 15.624C5.79 15.904 6.406 16.128 7.022 16.296C7.638 16.464 8.226 16.548 8.786 16.548C9.374 16.548 9.878 16.422 10.298 16.17C10.914 15.778 11.236 15.33 11.264 14.826C11.292 14.294 11.11 13.888 10.718 13.608Z" fill="#007AFF"/>
</svg>
